<svg width="256" height="256" viewBox="0 0 256 256" fill="none" xmlns="http://www.w3.org/2000/svg">
<path d="M88.28 28.5888C98.92 22.4392 112.56 26.0888 118.72 36.7416L185.52 152.442C191.64 163.122 188 176.722 177.36 182.882L100.2 227.402C89.56 233.562 75.96 229.922 69.8 219.282L2.9872 103.562C-3.1624 92.8816 0.4872 79.2816 11.14 73.1216L88.28 28.5888ZM196.6 146.042L141.88 51.3016C142.6 51.2336 143.28 50.8416 144 50.8416H233.6C245.96 50.8416 256 61.2296 256 73.2416V208.002C256 220.362 245.96 230.402 233.6 230.402H144C138.56 230.402 133.52 228.442 129.64 224.842L183.76 193.962C200.52 184.282 206.28 162.842 196.6 146.042Z" fill="currentColor"/>
</svg>
